
<svg width="23" height="23" viewBox="0 0 23 23" fill="none" xmlns="http://www.w3.org/2000/svg">
<circle cx="11.5" cy="11.5" r="11.5" fill="#899CD2"/>
<g clip-path="url(#clip0_1016_41)">
<path fill-rule="evenodd" clip-rule="evenodd" d="M11.5 5C10.5275 5 9.59491 5.36875 8.90728 6.02513C8.21964 6.6815 7.83333 7.57174 7.83333 8.5C7.83333 9.42826 8.21964 10.3185 8.90728 10.9749C9.59491 11.6313 10.5275 12 11.5 12C12.4725 12 13.4051 11.6313 14.0927 10.9749C14.7804 10.3185 15.1667 9.42826 15.1667 8.5C15.1667 7.57174 14.7804 6.6815 14.0927 6.02513C13.4051 5.36875 12.4725 5 11.5 5ZM9.66667 12.875C8.69421 12.875 7.76158 13.2437 7.07394 13.9001C6.38631 14.5565 6 15.4467 6 16.375V17.25C6 17.7141 6.19315 18.1593 6.53697 18.4875C6.88079 18.8157 7.34711 19 7.83333 19H15.1667C15.6529 19 16.1192 18.8157 16.463 18.4875C16.8068 18.1593 17 17.7141 17 17.25V16.375C17 15.4467 16.6137 14.5565 15.9261 13.9001C15.2384 13.2437 14.3058 12.875 13.3333 12.875H9.66667Z" fill="#001648"/>
</g>
<defs>
<clipPath id="clip0_1016_41">
<rect width="11" height="14" fill="white" transform="translate(6 5)"/>
</clipPath>
</defs>
</svg>
